<?xml version="1.0" encoding="UTF-8" standalone="no"?>
<svg
   xmlns:dc="http://purl.org/dc/elements/1.1/"
   xmlns:cc="http://creativecommons.org/ns#"
   xmlns:rdf="http://www.w3.org/1999/02/22-rdf-syntax-ns#"
   xmlns:svg="http://www.w3.org/2000/svg"
   xmlns="http://www.w3.org/2000/svg"
   xmlns:sodipodi="http://sodipodi.sourceforge.net/DTD/sodipodi-0.dtd"
   xmlns:inkscape="http://www.inkscape.org/namespaces/inkscape"
   width="19.042767mm"
   height="19.042761mm"
   viewBox="0 0 19.042767 19.042761"
   version="1.1"
   id="svg8"
   inkscape:version="1.0.2-2 (e86c870879, 2021-01-15)"
   sodipodi:docname="DSLogo-inverted.svg">
  <defs
     id="defs2" />
  <sodipodi:namedview
     id="base"
     pagecolor="#ffffff"
     bordercolor="#666666"
     borderopacity="1.0"
     inkscape:pageopacity="0.0"
     inkscape:pageshadow="2"
     inkscape:zoom="7.9195959"
     inkscape:cx="35.995258"
     inkscape:cy="22.79322"
     inkscape:document-units="mm"
     inkscape:current-layer="svg8"
     inkscape:document-rotation="0"
     showgrid="false"
     inkscape:window-width="1920"
     inkscape:window-height="1057"
     inkscape:window-x="1912"
     inkscape:window-y="-8"
     inkscape:window-maximized="1" />
  <metadata
     id="metadata5">
    <rdf:RDF>
      <cc:Work
         rdf:about="">
        <dc:format>image/svg+xml</dc:format>
        <dc:type
           rdf:resource="http://purl.org/dc/dcmitype/StillImage" />
        <dc:title />
      </cc:Work>
    </rdf:RDF>
  </metadata>
  <path
     style="fill:#c0cce4;stroke-width:0.174192;stroke-linecap:round;stroke-linejoin:round;fill-opacity:1"
     d="M 23.431486,62.343665 C 20.857089,62.127959 17.80605,61.027902 15.729073,59.566547 12.303886,57.156596 9.9968807,52.965139 9.5561779,48.351393 l -0.089378,-0.935705 2.6576271,2.53e-4 2.657628,2.52e-4 0.213636,1.31307 c 0.396555,2.437335 1.19865,4.211893 2.60946,5.773176 1.154285,1.277398 3.041138,2.435591 4.784615,2.936903 l 0.662913,0.190612 V 47.113091 36.596229 L 21.19021,35.937684 c -4.717975,-1.6683 -7.025081,-3.374622 -8.543257,-6.31863 -1.081463,-2.097144 -1.476125,-3.770688 -1.475698,-6.257623 4.39e-4,-2.556272 0.461913,-4.478148 1.579911,-6.579766 1.590504,-2.989837 4.139124,-5.109386 7.49605,-6.23406 2.157107,-0.7226967 2.502329,-0.7443235 10.886683,-0.6820074 9.54686,0.070956 11.687192,0.2035514 15.319301,0.9490444 7.593065,1.558481 13.801512,6.319051 17.021451,13.051865 2.805205,5.865616 3.410192,14.052725 1.521072,20.584185 -1.155841,3.996209 -2.98046,7.17252 -5.754709,10.017836 -4.64278,4.761713 -10.317308,7.17454 -18.131858,7.709724 -1.745588,0.119548 -16.569582,0.258258 -17.67767,0.165413 z m 16.743882,-4.82725 c 6.77862,-0.528998 11.032872,-2.108213 14.422488,-5.353747 1.831302,-1.753459 3.103986,-3.512333 4.196827,-5.800098 3.017059,-6.315939 2.964462,-14.626315 -0.131714,-20.81103 -0.970782,-1.939168 -2.04961,-3.424754 -3.65989,-5.039802 -3.267418,-3.277094 -6.781681,-4.830412 -12.694367,-5.610961 -1.577923,-0.208305 -5.871512,-0.4113 -5.871512,-0.277596 0,0.0422 0.257943,0.445709 0.573205,0.896697 1.188434,1.700071 2.02475,4.006839 2.327215,6.419046 0.07152,0.570391 0.130038,1.138002 0.130038,1.261358 0,0.207564 -0.192777,0.224283 -2.586111,0.224283 -2.940248,0 -2.611926,0.141427 -2.784787,-1.199556 -0.13304,-1.032066 -0.754569,-2.785612 -1.331598,-3.756896 -0.771223,-1.29816 -2.019521,-2.482344 -3.283792,-3.115132 -0.5656,-0.283092 -1.107016,-0.514712 -1.203147,-0.514712 -0.147257,0 -0.174664,1.43667 -0.174036,9.12294 l 7.57e-4,9.12294 1.419781,0.489424 c 4.90842,1.692022 7.426941,3.45916 9.230698,6.476789 1.454986,2.434144 2.154884,5.704031 1.866176,8.718673 -0.295935,3.090112 -1.286127,5.656825 -3.069391,7.956286 -0.335457,0.43256 -0.60992,0.816102 -0.60992,0.852316 0,0.104546 1.464212,0.07682 3.233091,-0.06122 z M 29.667117,57.052088 c 2.047251,-0.853978 3.841655,-2.526839 4.801293,-4.476081 0.844939,-1.71626 1.106485,-2.848592 1.119018,-4.844646 0.01218,-1.940586 -0.187427,-2.884936 -0.947508,-4.482552 -0.410921,-0.863718 -0.710608,-1.272634 -1.534814,-2.094224 -0.919812,-0.916892 -1.197911,-1.105899 -2.728821,-1.854623 -0.937548,-0.458527 -1.83248,-0.869457 -1.988738,-0.913175 l -0.284105,-0.07949 v 9.614992 9.61499 l 0.410374,-0.08765 c 0.225706,-0.0482 0.744692,-0.227101 1.153301,-0.397545 z M 23.052679,23.031706 v -8.474081 l -0.473509,0.0881 c -1.293916,0.240735 -2.994552,1.261405 -4.111051,2.467327 -1.504698,1.625212 -2.23397,3.620874 -2.23397,6.113282 0,2.979497 1.247392,5.496683 3.349416,6.758985 0.545723,0.327716 3.215435,1.50729 3.437547,1.51883 0.01736,8.83e-4 0.03157,-3.811696 0.03157,-8.47244 z"
     id="path847"
     transform="scale(0.26458333)" />
</svg>
