<?xml version="1.0" encoding="UTF-8" standalone="no"?>
<svg
   xmlns:dc="http://purl.org/dc/elements/1.1/"
   xmlns:cc="http://creativecommons.org/ns#"
   xmlns:rdf="http://www.w3.org/1999/02/22-rdf-syntax-ns#"
   xmlns:svg="http://www.w3.org/2000/svg"
   xmlns="http://www.w3.org/2000/svg"
   xmlns:sodipodi="http://sodipodi.sourceforge.net/DTD/sodipodi-0.dtd"
   xmlns:inkscape="http://www.inkscape.org/namespaces/inkscape"
   width="19.042767mm"
   height="19.042761mm"
   viewBox="0 0 19.042767 19.042761"
   version="1.1"
   id="svg8"
   inkscape:version="1.0.2-2 (e86c870879, 2021-01-15)"
   sodipodi:docname="DSLogo.svg">
  <defs
     id="defs2" />
  <sodipodi:namedview
     id="base"
     pagecolor="#ffffff"
     bordercolor="#666666"
     borderopacity="1.0"
     inkscape:pageopacity="0.0"
     inkscape:pageshadow="2"
     inkscape:zoom="1.4"
     inkscape:cx="-66.506486"
     inkscape:cy="88.108301"
     inkscape:document-units="mm"
     inkscape:current-layer="svg8"
     inkscape:document-rotation="0"
     showgrid="false"
     inkscape:window-width="1920"
     inkscape:window-height="1057"
     inkscape:window-x="1912"
     inkscape:window-y="-8"
     inkscape:window-maximized="1" />
  <metadata
     id="metadata5">
    <rdf:RDF>
      <cc:Work
         rdf:about="">
        <dc:format>image/svg+xml</dc:format>
        <dc:type
           rdf:resource="http://purl.org/dc/dcmitype/StillImage" />
        <dc:title />
      </cc:Work>
    </rdf:RDF>
  </metadata>
  <path
     id="path4187"
     style="fill:#c0cce4;fill-opacity:1;stroke:none;stroke-width:0.365001;stroke-linecap:round;stroke-linejoin:round;stroke-opacity:1"
     d="M 9.513631,7.9872066e-7 A 9.5214767,9.5214767 0 0 0 0,9.5213808 9.5214767,9.5214767 0 0 0 9.521383,19.042761 9.5214767,9.5214767 0 0 0 19.042766,9.5213808 9.5214767,9.5214767 0 0 0 9.521383,7.9872066e-7 a 9.5214767,9.5214767 0 0 0 -0.0078,0 z M 6.671945,2.5579808 c 0.183745,0 0.360616,0.0133 0.534334,0.0331 h 2.072224 c 2.44915,0 3.875125,0.30174 5.172811,1.09296 1.992217,1.22454 3.052011,3.2968 3.052011,5.9154 0,2.5997902 -1.078339,4.6342902 -3.125391,5.8776802 -1.188021,0.71588 -2.613318,1.03611 -4.642093,1.03611 H 7.187676 c -0.156885,0.0162 -0.31591,0.0269 -0.479042,0.0269 -0.174892,0 -0.344937,-0.0107 -0.511595,-0.0269 h -0.0987 v -0.0129 c -2.094476,-0.24588 -3.495302,-1.76078 -3.612184,-3.98167 h 1.443842 c 0.09138,0.84076 0.255931,1.2978 0.639752,1.77302 0.36726,0.46247 0.917442,0.79272 1.52859,0.93173 V 9.6950508 C 4.787307,9.2644308 4.36522,9.0622908 3.875217,8.5891808 3.27207,8.0225908 2.92489,7.1271608 2.92489,6.1950108 c 0,-1.92807 1.302128,-3.35353 3.173449,-3.59668 v -0.007 h 0.05478 c 0.169137,-0.0198 0.341111,-0.0331 0.518832,-0.0331 z m -0.573609,1.29915 c -1.068528,0.22502 -1.802474,1.11963 -1.802474,2.30115 0,0.62142 0.255932,1.22472 0.639755,1.572 0.265276,0.22548 0.558567,0.37561 1.162719,0.5798 z m 3.541903,0.002 c 0.498404,0.6134 0.791485,1.41573 0.814938,2.35386 h -1.40715 c -0.08617,-1.16333 -0.681672,-1.98569 -1.597318,-2.28565 v 4.81159 c 0.997982,0.32409 1.515046,0.56684 1.999361,0.91054 0.840753,0.6397002 1.334285,1.6996502 1.334285,2.8876802 0,1.06935 -0.378068,2.00528 -1.013375,2.70474 2.122469,-0.0437 3.415416,-0.40597 4.424535,-1.23455 1.242853,-1.03613 1.93735,-2.63745 1.93735,-4.4648402 0,-2.07227 -0.895898,-3.82422 -2.449462,-4.80384 -0.935035,-0.57114 -2.189491,-0.85126 -4.043164,-0.87953 z m -2.18953,6.2900502 v 5.06119 c 1.173564,-0.28867 1.962671,-1.29468 1.962671,-2.60036 0,-0.82247 -0.328769,-1.51697 -0.913641,-1.93735 -0.273738,-0.18615 -0.608793,-0.35312 -1.04903,-0.52348 z" />
</svg>
